<svg id="Capa_1" enable-background="new 0 0 510 510" height="512" viewBox="0 0 510 510" width="512" xmlns="http://www.w3.org/2000/svg" xmlns:xlink="http://www.w3.org/1999/xlink"><linearGradient id="SVGID_1_" gradientUnits="userSpaceOnUse" x1="139.954" x2="405.96" y1="114.864" y2="380.87"><stop offset="0" stop-color="#28a265"/><stop offset="1" stop-color="#28895e"/></linearGradient><linearGradient id="SVGID_2_" gradientUnits="userSpaceOnUse" x1="389.772" x2="193.772" y1="384.983" y2="139.983"><stop offset="0" stop-color="#108372" stop-opacity="0"/><stop offset="1" stop-color="#006837"/></linearGradient><linearGradient id="SVGID_3_" gradientUnits="userSpaceOnUse" x1="212.132" x2="284.116" y1="189.196" y2="261.18"><stop offset="0" stop-color="#ebeff0"/><stop offset="1" stop-color="#e3e5e4"/></linearGradient><g><g><path d="m484.91 229.91c0-126.975-102.933-229.91-229.909-229.91-127.351 0-229.912 102.56-229.911 229.911 0 124.764 99.381 226.317 223.299 229.816 3.679.104 6.612 3.101 6.612 6.781v31.263c0 10.872 13.145 16.317 20.833 8.629l45.439-45.439c9.767-9.767 21.072-17.879 33.512-23.881 76.996-37.151 130.125-115.951 130.125-207.17z" fill="url(#SVGID_1_)"/></g><path d="m483.641 254.145-123.934-123.933c-23.083-25.55-58.171-37.489-102.983-37.489-93.584 0-136.267 60.771-136.267 142.558 0 49.51 14.061 85.354 39.023 107.969l139.751 139.751 22.04-22.04c9.767-9.767 21.072-17.879 33.512-23.881 70.089-33.817 120.392-102.145 128.858-182.935z" fill="url(#SVGID_2_)"/><g><path d="m255.197 146.781c33.423 0 66.452 17.694 66.452 53.476v67.238c2.359 14.549 5.112 18.481 11.01 18.481 19.66 0 21.233-36.568 21.233-53.87 0-70.384-29.491-108.525-96.336-108.525-78.642 0-101.054 51.903-101.054 111.671 0 55.836 19.66 104.594 89.258 104.594 30.67 0 41.679-9.437 50.724-9.437 9.83 0 14.549 11.403 14.549 17.302 0 19.267-49.544 25.165-72.743 25.165-62.128 0-119.929-44.826-119.929-137.23 0-81.787 45.219-145.094 138.803-145.094 84.539 0 134.477 51.511 134.477 131.725 0 51.117-20.053 92.797-62.52 92.797-23.592 0-39.32-12.583-42.466-29.883-12.583 16.908-28.311 28.704-49.545 28.704-23.199 0-49.15-14.548-49.15-46.398 0-37.354 34.995-49.937 79.821-49.937h10.617v-5.112c0-16.909-9.044-25.165-29.098-25.165-23.199 0-31.85 11.009-38.928 11.009-7.865 0-13.762-14.942-13.762-22.413-.001-16.122 30.276-29.098 58.587-29.098zm25.558 95.157h-7.078c-24.772 0-37.748 8.65-37.748 24.772 0 10.224 5.112 16.122 13.369 16.122 14.549 0 31.457-15.728 31.457-32.243z" fill="url(#SVGID_3_)"/></g></g></svg>